<?xml version="1.0" encoding="utf-8"?>
<!-- Generator: Adobe Illustrator 26.3.1, SVG Export Plug-In . SVG Version: 6.00 Build 0)  -->
<svg version="1.1" id="Capa_1" xmlns="http://www.w3.org/2000/svg" xmlns:xlink="http://www.w3.org/1999/xlink" x="0px" y="0px"
	 viewBox="0 0 110 99" style="enable-background:new 0 0 110 99;" xml:space="preserve">
<style type="text/css">
	.st0{fill-rule:evenodd;clip-rule:evenodd;}
</style>
<g>
	<path class="st0" d="M104,91.8H30.4c-0.4,0-0.6-0.2-0.8-0.4c-0.2-0.4-0.2-0.6-0.2-1l11.5-27.5c0.2-0.2,0.4-0.4,0.6-0.6
		c0.2,0,0.6,0,0.8,0.2L52.7,67l9.8-9.8c0.2-0.2,0.6-0.4,0.8-0.4H80l5.3-19.7c0.2-0.4,0.6-0.8,1-0.8h6.4L103,8.8
		c0.2-0.4,0.8-0.6,1.2-0.6c0.4,0.2,0.8,0.6,0.8,1v81.6C105,91.4,104.6,91.8,104,91.8L104,91.8z M31.8,89.8H103V14.5l-8.8,23.2
		c-0.2,0.4-0.6,0.6-1,0.6H87L81.8,58c-0.2,0.6-0.6,0.8-1,0.8H63.6l-10,10.2c-0.4,0.2-0.8,0.2-1.2,0.2l-10-4.5L31.8,89.8z"/>
	<path class="st0" d="M41.3,66c-0.6,0-1-0.4-1-1V50.8v-0.4L46.6,33c0.2-0.2,0.4-0.4,0.6-0.6c0.4,0,0.8,0,1,0.2l7.2,4.9
		c0.2,0.2,0.4,0.4,0.4,0.6l3.9,14.8h12.7c0.2,0,0.6,0.2,0.6,0.4l3.9,3.9c0.4,0.4,0.4,1,0,1.4s-1,0.4-1.4,0L72,54.9H58.9
		c-0.4,0-0.8-0.2-1-0.8L54,38.9L48.2,35l-5.9,16V65C42.3,65.6,41.9,66,41.3,66L41.3,66z"/>
	<path class="st0" d="M47.6,34.4c-0.2,0-0.4,0-0.6-0.2c-0.4-0.4-0.6-1-0.2-1.4l9.6-10.9c0.2-0.4,0.6-0.4,1-0.4l17.2,2.7l10.5-10.4
		c0.2-0.2,0.6-0.2,0.8-0.2c0.4,0,0.6,0.2,0.8,0.4L97.8,27c0.4,0.4,0.2,1-0.2,1.4c-0.4,0.4-1,0.2-1.4-0.2L85.9,16L75.5,26
		c-0.2,0.2-0.4,0.2-0.8,0.2l-17.2-2.7L48.4,34C48.2,34.2,47.8,34.4,47.6,34.4L47.6,34.4z"/>
	<path class="st0" d="M82.9,82.8c-0.2,0-0.6,0-0.8-0.2c-0.4-0.4-0.4-1.2,0-1.6l10.4-10V49c0-0.6,0.4-1,1-1c0.6,0,1,0.4,1,1v22.5
		c0,0.2-0.2,0.6-0.4,0.8L83.5,82.6C83.3,82.8,83.1,82.8,82.9,82.8L82.9,82.8z"/>
	<path class="st0" d="M50.7,85.7c-0.2,0-0.4,0-0.6-0.2c-0.4-0.2-0.6-0.8-0.2-1.2l7-11.9c0.2-0.6,0.8-0.8,1.2-0.4
		c0.6,0.2,0.8,0.8,0.4,1.4l-7,11.9C51.3,85.5,51.1,85.7,50.7,85.7L50.7,85.7z"/>
	<path class="st0" d="M73,91.8h-0.2c-0.6-0.2-0.8-0.6-0.8-1.2l3.7-22.1H64.6c-0.6,0-1-0.4-1-1s0.4-1,1-1h12.3c0.2,0,0.6,0.2,0.8,0.4
		c0.2,0.2,0.2,0.4,0.2,0.8L73.9,91C73.8,91.4,73.4,91.8,73,91.8L73,91.8z"/>
	<path class="st0" d="M71.6,40.2c-0.2,0-0.4,0-0.6-0.2l-7.6-6.8c-0.4-0.4-0.6-1-0.2-1.4c0.4-0.4,1-0.6,1.4-0.2l6.4,5.9L73.9,25
		c0.2-0.6,0.6-1,1.2-0.8c0.6,0.2,1,0.6,0.8,1.2l-3.3,14.1c-0.2,0.4-0.4,0.6-0.8,0.8L71.6,40.2L71.6,40.2z"/>
	<path class="st0" d="M30.4,91.8H6c-0.6,0-1-0.4-1-1c0-0.6,0.4-1,1-1h24.4c0.6,0,1,0.4,1,1C31.4,91.4,31,91.8,30.4,91.8z"/>
	<path class="st0" d="M31.2,32c-0.4,0-0.8-0.2-1-0.6l-2.5-8c0-0.4,0-0.6,0.2-0.8l2.9-5.1c0-0.4,0.4-0.6,0.8-0.6l12.3,0.2
		c0.6,0,1,0.4,1,1l0.4,5.1c0,0.2,0,0.2-0.2,0.4l-2.5,5.3c0,0.4-0.4,0.6-0.6,0.6L31.4,32H31.2L31.2,32z M29.6,23.2l2.1,6.6l9.2-2.1
		l2.3-4.7l-0.4-3.9l-10.7-0.2L29.6,23.2z"/>
	<path class="st0" d="M31.2,32c-0.2,0-0.4,0-0.6-0.2c-0.4-0.2-0.6-0.8-0.2-1.4l5.1-7.8c0.2-0.2,0.4-0.4,0.8-0.4h8c0.6,0,1,0.4,1,1
		c0,0.6-0.4,1-1,1h-7.4L32,31.6C31.8,31.8,31.6,32,31.2,32L31.2,32z"/>
	<path class="st0" d="M36.2,24.2c-0.2,0-0.6-0.2-0.8-0.4l-4.7-5.3c-0.4-0.4-0.2-1,0.2-1.4c0.4-0.4,1-0.2,1.4,0.2l4.7,5.3
		c0.4,0.4,0.2,1-0.2,1.4C36.6,24.2,36.4,24.2,36.2,24.2L36.2,24.2z"/>
	<path class="st0" d="M27.1,56.1h-0.2l-8.2-2.1c-0.4-0.2-0.6-0.2-0.8-0.6l-2.5-5.1c0-0.2,0-0.6,0.2-1l6.6-10.4
		c0.2-0.4,0.8-0.6,1.2-0.2l4.5,2.3c0.2,0,0.4,0.2,0.4,0.2l3.1,5.1c0.2,0.4,0.2,0.6,0.2,1L28,55.5C27.9,55.9,27.5,56.1,27.1,56.1
		L27.1,56.1z M19.5,52.1l7,1.8l2.9-8.8l-2.7-4.5l-3.3-1.8l-5.9,9L19.5,52.1z"/>
	<path class="st0" d="M27.1,56.1c-0.4,0-0.8-0.2-1-0.6l-3.9-8.4c0-0.2,0-0.6,0.2-1l4.3-6.8c0.2-0.4,0.8-0.6,1.4-0.2
		c0.4,0.2,0.6,0.8,0.2,1.4l-3.9,6.2l3.7,8c0.2,0.4,0,1-0.6,1.2C27.3,56.1,27.3,56.1,27.1,56.1L27.1,56.1z"/>
	<path class="st0" d="M16.3,48.8c-0.4,0-1-0.4-1-0.8c0-0.6,0.2-1,0.8-1.2l6.8-1.2c0.6,0,1,0.2,1.2,0.8c0,0.6-0.2,1-0.8,1.2l-6.8,1.2
		H16.3L16.3,48.8z"/>
	<path class="st0" d="M30.2,75.6H30l-4.9-1.4c-0.4-0.2-0.6-0.2-0.8-0.6l-1.6-3.1c0-0.2,0-0.6,0.2-1l4.1-6.2c0.2-0.4,0.8-0.6,1.2-0.2
		l2.7,1.4c0.2,0,0.4,0.2,0.4,0.4l1.8,3.1c0.2,0.2,0.2,0.4,0.2,0.8L31.2,75C31,75.4,30.6,75.6,30.2,75.6L30.2,75.6z M25.9,72.5l3.7,1
		l1.6-4.9L29.8,66l-1.6-0.8l-3.3,4.9L25.9,72.5z"/>
	<path class="st0" d="M19.8,34.8h-0.2l-4.9-1.4c-0.4-0.2-0.6-0.2-0.8-0.6l-1.6-3.1c0-0.2,0-0.6,0.2-1l4.1-6.2
		c0.2-0.4,0.8-0.6,1.2-0.2l2.7,1.6c0.2,0,0.4,0.2,0.4,0.2l1.8,2.9c0.2,0.4,0.2,0.6,0.2,1l-2.1,6.3C20.6,34.6,20.2,34.8,19.8,34.8
		L19.8,34.8z M15.5,31.6l3.7,1l1.6-4.9l-1.4-2.3l-1.6-1l-3.3,4.9L15.5,31.6z"/>
</g>
</svg>
