<?xml version="1.0" encoding="utf-8"?>
<!-- Generator: Adobe Illustrator 26.3.1, SVG Export Plug-In . SVG Version: 6.00 Build 0)  -->
<svg version="1.1" id="Capa_1" xmlns="http://www.w3.org/2000/svg"
	xmlns:xlink="http://www.w3.org/1999/xlink" x="0px" y="0px" viewBox="0 0 82 87"
>
	<path
		d="M65.7,76.8H17.2c-0.6,0-1.2-0.5-1.2-1.2V53.2c0-2.1,1.7-3.8,3.8-3.8h43.3c2.1,0,3.8,1.7,3.8,3.8v22.4
	C66.9,76.3,66.4,76.8,65.7,76.8L65.7,76.8z M18.4,74.5h46.2V53.2c0-0.8-0.6-1.4-1.4-1.4H19.8c-0.8,0-1.4,0.6-1.4,1.4L18.4,74.5z" />
	<path
		d="M74,81.3h-5.7c-2.1,0-3.8-1.7-3.8-3.8V59.9c0-2.1,1.7-3.8,3.8-3.8H74c2.1,0,3.8,1.7,3.8,3.8v17.7
	C77.8,79.6,76.1,81.3,74,81.3z M68.3,58.4c-0.8,0-1.4,0.6-1.4,1.4v17.7c0,0.8,0.6,1.4,1.4,1.4h5.7c0.8,0,1.4-0.6,1.4-1.4V59.9
	c0-0.8-0.6-1.4-1.4-1.4H68.3z" />
	<path
		d="M14.6,81.3H8.8c-2.1,0-3.8-1.7-3.8-3.8V59.9c0-2.1,1.7-3.8,3.8-3.8h5.7c2.1,0,3.8,1.7,3.8,3.8v17.7
	C18.4,79.6,16.7,81.3,14.6,81.3z M8.8,58.4c-0.8,0-1.4,0.6-1.4,1.4v17.7c0,0.8,0.6,1.4,1.4,1.4h5.7c0.8,0,1.4-0.6,1.4-1.4V59.9
	c0-0.8-0.6-1.4-1.4-1.4H8.8z" />
	<path
		d="M58.7,71.6H24.1c-0.6,0-1.2-0.5-1.2-1.2v-5.2c0-0.6,0.5-1.2,1.2-1.2h34.6c0.6,0,1.2,0.5,1.2,1.2v5.2
	C59.9,71.1,59.4,71.6,58.7,71.6z M25.3,69.3h32.3v-2.8l-32.3,0L25.3,69.3z" />
	<path
		d="M39.5,59.8c-0.6,0-1.2-0.5-1.2-1.2v-4c0-0.6,0.5-1.2,1.2-1.2s1.2,0.5,1.2,1.2v4C40.6,59.3,40.1,59.8,39.5,59.8z" />
	<path
		d="M31.8,59.8c-0.6,0-1.2-0.5-1.2-1.2v-4c0-0.6,0.5-1.2,1.2-1.2c0.6,0,1.2,0.5,1.2,1.2v4C33,59.3,32.5,59.8,31.8,59.8z" />
	<path
		d="M24.1,59.8c-0.6,0-1.2-0.5-1.2-1.2v-4c0-0.6,0.5-1.2,1.2-1.2c0.6,0,1.2,0.5,1.2,1.2v4C25.3,59.3,24.8,59.8,24.1,59.8z" />
	<path
		d="M38.7,51.8H23.8c-0.6,0-1.2-0.5-1.2-1.2v-6.5c0-0.6,0.5-1.2,1.2-1.2h14.9c0.6,0,1.2,0.5,1.2,1.2v6.5
	C39.9,51.3,39.4,51.8,38.7,51.8z M25,49.4h12.6v-4.2H25V49.4z" />
	<path
		d="M44.7,24H17.8c-0.6,0-1.2-0.5-1.2-1.2V7.4c0-0.6,0.5-1.2,1.2-1.2h26.9c0.6,0,1.2,0.5,1.2,1.2v15.3
	C45.9,23.4,45.4,24,44.7,24z M19,21.6h24.6v-13H19L19,21.6z" />
	<path
		d="M34.1,45.3h-5.7c-0.6,0-1.2-0.5-1.2-1.2V22.8c0-0.6,0.5-1.2,1.2-1.2h5.7c0.6,0,1.2,0.5,1.2,1.2v21.3
	C35.3,44.8,34.8,45.3,34.1,45.3z M29.6,42.9h3.4V24h-3.4V42.9z" />
	<path
		d="M17.8,13.3h-4.2c-0.6,0-1.2-0.5-1.2-1.2c0-0.6,0.5-1.2,1.2-1.2h4.2c0.6,0,1.2,0.5,1.2,1.2C19,12.7,18.4,13.3,17.8,13.3z" />
	<path
		d="M17.8,19.3h-4.2c-0.6,0-1.2-0.5-1.2-1.2c0-0.6,0.5-1.2,1.2-1.2h4.2c0.6,0,1.2,0.5,1.2,1.2C19,18.8,18.4,19.3,17.8,19.3z" />
	<path
		d="M48.9,13.3h-4.2c-0.6,0-1.2-0.5-1.2-1.2c0-0.6,0.5-1.2,1.2-1.2h4.2c0.6,0,1.2,0.5,1.2,1.2C50,12.7,49.5,13.3,48.9,13.3z" />
	<path
		d="M48.9,19.3h-4.2c-0.6,0-1.2-0.5-1.2-1.2c0-0.6,0.5-1.2,1.2-1.2h4.2c0.6,0,1.2,0.5,1.2,1.2C50,18.8,49.5,19.3,48.9,19.3z" />
	<path
		d="M36.4,20.1c-2.8,0-5-2.2-5-5s2.2-5,5-5s5,2.2,5,5C41.4,17.9,39.1,20.1,36.4,20.1z M36.4,12.5c-1.5,0-2.7,1.2-2.7,2.7
	s1.2,2.7,2.7,2.7s2.7-1.2,2.7-2.7C39,13.7,37.8,12.5,36.4,12.5z" />
	<path
		d="M26.9,16.3h-9.2c-0.6,0-1.2-0.5-1.2-1.2c0-0.6,0.5-1.2,1.2-1.2h8l0-6.5c0-0.6,0.5-1.2,1.2-1.2c0.6,0,1.2,0.5,1.2,1.2v7.7
	C28.1,15.8,27.6,16.3,26.9,16.3L26.9,16.3z" />
	<path
		d="M58.7,59.8H47.3c-0.6,0-1.2-0.5-1.2-1.2v-8c0-0.6,0.5-1.2,1.2-1.2c0.6,0,1.2,0.5,1.2,1.2v6.8h9.1v-6.8
	c0-0.6,0.5-1.2,1.2-1.2c0.6,0,1.2,0.5,1.2,1.2v8C59.9,59.3,59.4,59.8,58.7,59.8L58.7,59.8z" />
	<path
		d="M58.7,51.8c-0.6,0-1.2-0.5-1.2-1.2v-9.8c0-0.6,0.5-1.2,1.2-1.2c0.6,0,1.2,0.5,1.2,1.2v9.8C59.9,51.3,59.4,51.8,58.7,51.8z"
	/>
	<path
		d="M62.9,38.3c-0.4,0-0.8-0.2-1-0.5c-0.7-1.1-1.9-1.7-3.1-1.7s-2.4,0.7-3.1,1.7c-0.4,0.5-1.1,0.7-1.6,0.3
	c-0.5-0.4-0.7-1.1-0.3-1.6c1.2-1.8,3.1-2.8,5.1-2.8s3.9,1.1,5.1,2.8c0.4,0.5,0.2,1.3-0.3,1.6C63.3,38.3,63.1,38.3,62.9,38.3
	L62.9,38.3z" />
	<path
		d="M66,36c-0.4,0-0.8-0.2-1-0.5c-1.5-2.2-3.8-3.5-6.3-3.5c-2.5,0-4.9,1.3-6.3,3.5c-0.4,0.5-1.1,0.7-1.6,0.3
	c-0.5-0.4-0.7-1.1-0.3-1.6c1.9-2.9,5-4.6,8.3-4.6c3.3,0,6.4,1.7,8.3,4.6c0.4,0.5,0.2,1.3-0.3,1.6C66.5,35.9,66.3,36,66,36L66,36z" />
	<path
		d="M69.6,33.9c-0.4,0-0.8-0.2-1-0.5c-2.3-3.4-6-5.5-9.9-5.5c-3.9,0-7.6,2.1-9.9,5.5c-0.4,0.5-1.1,0.7-1.6,0.3
	c-0.5-0.4-0.7-1.1-0.3-1.6c1.3-2,3.1-3.6,5-4.8c2.1-1.2,4.4-1.8,6.8-1.8c2.4,0,4.7,0.6,6.8,1.8c2,1.1,3.7,2.8,5,4.8
	c0.4,0.5,0.2,1.3-0.3,1.6C70.1,33.8,69.8,33.9,69.6,33.9L69.6,33.9z" />
	<path
		d="M76.6,62.6h-2.8c-0.6,0-1.2-0.5-1.2-1.2s0.5-1.2,1.2-1.2h2.8c0.6,0,1.2,0.5,1.2,1.2S77.3,62.6,76.6,62.6z" />
	<path
		d="M76.6,67.4h-2.8c-0.6,0-1.2-0.5-1.2-1.2s0.5-1.2,1.2-1.2h2.8c0.6,0,1.2,0.5,1.2,1.2C77.8,66.9,77.3,67.4,76.6,67.4z" />
	<path
		d="M76.6,72.3h-2.8c-0.6,0-1.2-0.5-1.2-1.2c0-0.6,0.5-1.2,1.2-1.2h2.8c0.6,0,1.2,0.5,1.2,1.2C77.8,71.8,77.3,72.3,76.6,72.3z"
	/>
	<path
		d="M76.6,77.2h-2.8c-0.6,0-1.2-0.5-1.2-1.2s0.5-1.2,1.2-1.2h2.8c0.6,0,1.2,0.5,1.2,1.2S77.3,77.2,76.6,77.2z" />
	<path
		d="M68.5,62.6h-2.8c-0.6,0-1.2-0.5-1.2-1.2s0.5-1.2,1.2-1.2h2.8c0.6,0,1.2,0.5,1.2,1.2C69.6,62,69.1,62.6,68.5,62.6z" />
	<path
		d="M68.5,67.4h-2.8c-0.6,0-1.2-0.5-1.2-1.2s0.5-1.2,1.2-1.2h2.8c0.6,0,1.2,0.5,1.2,1.2C69.6,66.9,69.1,67.4,68.5,67.4z" />
	<path
		d="M68.5,72.3h-2.8c-0.6,0-1.2-0.5-1.2-1.2c0-0.6,0.5-1.2,1.2-1.2h2.8c0.6,0,1.2,0.5,1.2,1.2C69.6,71.8,69.1,72.3,68.5,72.3z"
	/>
	<path
		d="M68.5,77.2h-2.8c-0.6,0-1.2-0.5-1.2-1.2s0.5-1.2,1.2-1.2h2.8c0.6,0,1.2,0.5,1.2,1.2C69.6,76.6,69.1,77.2,68.5,77.2z" />
	<path
		d="M17.2,62.6h-2.8c-0.6,0-1.2-0.5-1.2-1.2s0.5-1.2,1.2-1.2h2.8c0.6,0,1.2,0.5,1.2,1.2S17.8,62.6,17.2,62.6z" />
	<path
		d="M17.2,67.4h-2.8c-0.6,0-1.2-0.5-1.2-1.2s0.5-1.2,1.2-1.2h2.8c0.6,0,1.2,0.5,1.2,1.2C18.4,66.9,17.8,67.4,17.2,67.4z" />
	<path
		d="M17.2,72.3h-2.8c-0.6,0-1.2-0.5-1.2-1.2c0-0.6,0.5-1.2,1.2-1.2h2.8c0.6,0,1.2,0.5,1.2,1.2C18.4,71.8,17.8,72.3,17.2,72.3z"
	/>
	<path
		d="M17.2,77.2h-2.8c-0.6,0-1.2-0.5-1.2-1.2s0.5-1.2,1.2-1.2h2.8c0.6,0,1.2,0.5,1.2,1.2S17.8,77.2,17.2,77.2z" />
	<path
		d="M9,62.6H6.2c-0.6,0-1.2-0.5-1.2-1.2s0.5-1.2,1.2-1.2H9c0.6,0,1.2,0.5,1.2,1.2S9.7,62.6,9,62.6z" />
	<path
		d="M9,67.4H6.2c-0.6,0-1.2-0.5-1.2-1.2s0.5-1.2,1.2-1.2H9c0.6,0,1.2,0.5,1.2,1.2C10.2,66.9,9.7,67.4,9,67.4z" />
	<path
		d="M9,72.3H6.2c-0.6,0-1.2-0.5-1.2-1.2c0-0.6,0.5-1.2,1.2-1.2H9c0.6,0,1.2,0.5,1.2,1.2C10.2,71.8,9.7,72.3,9,72.3z" />
	<path
		d="M9,77.2H6.2c-0.6,0-1.2-0.5-1.2-1.2s0.5-1.2,1.2-1.2H9c0.6,0,1.2,0.5,1.2,1.2S9.7,77.2,9,77.2z" />
</svg>